  0
SECTION
  2
HEADER
  9
$ACADVER
  1
AC1009
  9
$DWGCODEPAGE
  3
ansi_1252
  9
$INSBASE
 10
0.0
 20
0.0
 30
0.0
  9
$EXTMIN
 10
-9.999999999999972
 20
-25.74999999999305
 30
0.0
  9
$EXTMAX
 10
10.00000000000009
 20
24.25000000000698
 30
0.0
  9
$LIMMIN
 10
0.0
 20
0.0
  9
$LIMMAX
 10
12.0
 20
9.0
  9
$ORTHOMODE
 70
     0
  9
$REGENMODE
 70
     1
  9
$FILLMODE
 70
     1
  9
$QTEXTMODE
 70
     0
  9
$MIRRTEXT
 70
     1
  9
$DRAGMODE
 70
     2
  9
$LTSCALE
 40
1.0
  9
$OSMODE
 70
    37
  9
$ATTMODE
 70
     1
  9
$TEXTSIZE
 40
0.2
  9
$TRACEWID
 40
0.05
  9
$TEXTSTYLE
  7
STANDARD
  9
$CLAYER
  8
0
  9
$CELTYPE
  6
BYLAYER
  9
$CECOLOR
 62
   256
  9
$DIMSCALE
 40
1.0
  9
$DIMASZ
 40
0.18
  9
$DIMEXO
 40
0.0625
  9
$DIMDLI
 40
0.38
  9
$DIMRND
 40
0.0
  9
$DIMDLE
 40
0.0
  9
$DIMEXE
 40
0.18
  9
$DIMTP
 40
0.0
  9
$DIMTM
 40
0.0
  9
$DIMTXT
 40
0.18
  9
$DIMCEN
 40
0.09
  9
$DIMTSZ
 40
0.0
  9
$DIMTOL
 70
     0
  9
$DIMLIM
 70
     0
  9
$DIMTIH
 70
     1
  9
$DIMTOH
 70
     1
  9
$DIMSE1
 70
     0
  9
$DIMSE2
 70
     0
  9
$DIMTAD
 70
     0
  9
$DIMZIN
 70
     0
  9
$DIMBLK
  1

  9
$DIMASO
 70
     1
  9
$DIMSHO
 70
     1
  9
$DIMPOST
  1

  9
$DIMAPOST
  1

  9
$DIMALT
 70
     0
  9
$DIMALTD
 70
     2
  9
$DIMALTF
 40
25.4
  9
$DIMLFAC
 40
1.0
  9
$DIMTOFL
 70
     0
  9
$DIMTVP
 40
0.0
  9
$DIMTIX
 70
     0
  9
$DIMSOXD
 70
     0
  9
$DIMSAH
 70
     0
  9
$DIMBLK1
  1

  9
$DIMBLK2
  1

  9
$DIMSTYLE
  2
STANDARD
  9
$DIMCLRD
 70
     0
  9
$DIMCLRE
 70
     0
  9
$DIMCLRT
 70
     0
  9
$DIMTFAC
 40
1.0
  9
$DIMGAP
 40
0.09
  9
$LUNITS
 70
     2
  9
$LUPREC
 70
     4
  9
$SKETCHINC
 40
0.1
  9
$FILLETRAD
 40
0.5
  9
$AUNITS
 70
     0
  9
$AUPREC
 70
     0
  9
$MENU
  1
.
  9
$ELEVATION
 40
0.0
  9
$PELEVATION
 40
0.0
  9
$THICKNESS
 40
0.0
  9
$LIMCHECK
 70
     0
  9
$CHAMFERA
 40
0.0
  9
$CHAMFERB
 40
0.0
  9
$SKPOLY
 70
     0
  9
$TDCREATE
 40
2454910.5
  9
$TDUPDATE
 40
2461113.820022813
  9
$TDINDWG
 40
0.0000000116
  9
$TDUSRTIMER
 40
0.0000000116
  9
$USRTIMER
 70
     1
  9
$ANGBASE
 50
0.0
  9
$ANGDIR
 70
     0
  9
$PDMODE
 70
     0
  9
$PDSIZE
 40
0.0
  9
$PLINEWID
 40
0.0
  9
$COORDS
 70
     1
  9
$SPLFRAME
 70
     0
  9
$SPLINETYPE
 70
     6
  9
$SPLINESEGS
 70
     8
  9
$ATTDIA
 70
     0
  9
$ATTREQ
 70
     1
  9
$HANDLING
 70
     1
  9
$HANDSEED
  5
B1
  9
$SURFTAB1
 70
     6
  9
$SURFTAB2
 70
     6
  9
$SURFTYPE
 70
     6
  9
$SURFU
 70
     6
  9
$SURFV
 70
     6
  9
$UCSNAME
  2

  9
$UCSORG
 10
0.0
 20
0.0
 30
0.0
  9
$UCSXDIR
 10
1.0
 20
0.0
 30
0.0
  9
$UCSYDIR
 10
0.0
 20
1.0
 30
0.0
  9
$PUCSNAME
  2

  9
$PUCSORG
 10
0.0
 20
0.0
 30
0.0
  9
$PUCSXDIR
 10
1.0
 20
0.0
 30
0.0
  9
$PUCSYDIR
 10
0.0
 20
1.0
 30
0.0
  9
$USERI1
 70
     0
  9
$USERI2
 70
     0
  9
$USERI3
 70
     0
  9
$USERI4
 70
     0
  9
$USERI5
 70
     0
  9
$USERR1
 40
0.0
  9
$USERR2
 40
0.0
  9
$USERR3
 40
0.0
  9
$USERR4
 40
0.0
  9
$USERR5
 40
0.0
  9
$WORLDVIEW
 70
     1
  9
$SHADEDGE
 70
     3
  9
$SHADEDIF
 70
    70
  9
$TILEMODE
 70
     1
  9
$MAXACTVP
 70
    64
  9
$PLIMCHECK
 70
     0
  9
$PEXTMIN
 10
1.000000000000000E+20
 20
1.000000000000000E+20
 30
1.000000000000000E+20
  9
$PEXTMAX
 10
-1.000000000000000E+20
 20
-1.000000000000000E+20
 30
-1.000000000000000E+20
  9
$PLIMMIN
 10
0.0
 20
0.0
  9
$PLIMMAX
 10
12.0
 20
9.0
  9
$UNITMODE
 70
     0
  9
$VISRETAIN
 70
     1
  9
$PLINEGEN
 70
     0
  9
$PSLTSCALE
 70
     1
  0
ENDSEC
  0
SECTION
  2
TABLES
  0
TABLE
  2
VPORT
 70
     1
  0
VPORT
  2
*ACTIVE
 70
     0
 10
0.0
 20
0.0
 11
1.0
 21
1.0
 12
10.42990654205607
 22
4.5
 13
0.0
 23
0.0
 14
0.5
 24
0.5
 15
0.5
 25
0.5
 16
0.0
 26
0.0
 36
1.0
 17
0.0
 27
0.0
 37
0.0
 40
9.0
 41
1.972972972850329
 42
50.0
 43
0.0
 44
0.0
 50
0.0
 51
0.0
 71
     0
 72
   100
 73
     1
 74
     3
 75
     0
 76
     0
 77
     0
 78
     0
  0
ENDTAB
  0
TABLE
  2
LTYPE
 70
     2
  0
LTYPE
  2
CONTINUOUS
 70
     0
  3
Solid line
 72
    65
 73
     0
 40
0.0
  0
LTYPE
  2
CONTINUOUS2
 70
     0
  3
Solid Line
 72
    65
 73
     0
 40
0.0
  0
ENDTAB
  0
TABLE
  2
LAYER
 70
     4
  0
LAYER
  2
0
 70
     0
 62
     7
  6
CONTINUOUS
  0
LAYER
  2
FEATURE1
 70
     0
 62
     1
  6
CONTINUOUS
  0
LAYER
  2
FEATURE_2
 70
     0
 62
   231
  6
CONTINUOUS
  0
LAYER
  2
FUSION360
 70
     0
 62
     7
  6
CONTINUOUS
  0
ENDTAB
  0
TABLE
  2
STYLE
 70
     1
  0
STYLE
  2
STANDARD
 70
     0
 40
0.0
 41
1.0
 50
0.0
 71
     0
 42
0.2
  3
txt
  4

  0
ENDTAB
  0
TABLE
  2
VIEW
 70
     0
  0
ENDTAB
  0
TABLE
  2
UCS
 70
     0
  0
ENDTAB
  0
TABLE
  2
APPID
 70
     1
  0
APPID
  2
ACAD
 70
     0
  0
ENDTAB
  0
TABLE
  2
DIMSTYLE
 70
     1
  0
DIMSTYLE
  2
STANDARD
 70
     0
  3

  4

  5

  6

  7

 40
1.0
 41
0.18
 42
0.0625
 43
0.38
 44
0.18
 45
0.0
 46
0.0
 47
0.0
 48
0.0
140
0.18
141
0.09
142
0.0
143
25.4
144
1.0
145
0.0
146
1.0
147
0.09
 71
     0
 72
     0
 73
     1
 74
     1
 75
     0
 76
     0
 77
     0
 78
     0
170
     0
171
     2
172
     0
173
     0
174
     0
175
     0
176
     0
177
     0
178
     0
  0
ENDTAB
  0
ENDSEC
  0
SECTION
  2
BLOCKS
  0
BLOCK
  8
0
  2
$MODEL_SPACE
 70
     0
 10
0.0
 20
0.0
 30
0.0
  3
$MODEL_SPACE
  1

  0
ENDBLK
  5
21
  8
0
  0
BLOCK
 67
     1
  8
0
  2
$PAPER_SPACE
 70
     0
 10
0.0
 20
0.0
 30
0.0
  3
$PAPER_SPACE
  1

  0
ENDBLK
  5
1D
 67
     1
  8
0
  0
ENDSEC
  0
SECTION
  2
ENTITIES
  0
POLYLINE
  5
70
  8
FEATURE1
 66
     1
 10
0.0
 20
0.0
 30
0.0
 70
     1
  0
VERTEX
  5
7F
  8
FEATURE1
 10
-3.999999999999943
 20
10.25000000000692
 30
0.0
 42
-0.4142135623730951
  0
VERTEX
  5
80
  8
FEATURE1
 10
0.0000000000000562
 20
14.25000000000695
 30
0.0
 42
-0.4142135623730951
  0
VERTEX
  5
81
  8
FEATURE1
 10
4.000000000000028
 20
10.25000000000693
 30
0.0
  0
VERTEX
  5
82
  8
FEATURE1
 10
4.000000000000085
 20
-1.749999999993051
 30
0.0
 42
-0.4142135623730951
  0
VERTEX
  5
83
  8
FEATURE1
 10
0.0000000000000566
 20
-5.749999999993051
 30
0.0
 42
-0.4142135623730951
  0
VERTEX
  5
84
  8
FEATURE1
 10
-3.999999999999915
 20
-1.749999999993079
 30
0.0
  0
SEQEND
  5
AB
  8
FEATURE1
  0
POLYLINE
  5
71
  8
FEATURE1
 66
     1
 10
0.0
 20
0.0
 30
0.0
 70
     1
  0
VERTEX
  5
85
  8
FEATURE1
 10
-0.0000000000009805
 20
-18.66294374557319
 30
0.0
 42
0.4142135623730951
  0
VERTEX
  5
86
  8
FEATURE1
 10
-2.066987298108756
 20
-20.72993104368097
 30
0.0
 42
0.4142135623730951
  0
VERTEX
  5
87
  8
FEATURE1
 10
-0.0000000000009807
 20
-22.79691834178875
 30
0.0
 42
0.4142135623730951
  0
VERTEX
  5
88
  8
FEATURE1
 10
2.066987298106795
 20
-20.72993104368097
 30
0.0
 42
0.4142135623730951
  0
SEQEND
  5
AC
  8
FEATURE1
  0
POLYLINE
  5
72
  8
FEATURE1
 66
     1
 10
0.0
 20
0.0
 30
0.0
 70
     1
  0
VERTEX
  5
89
  8
FEATURE1
 10
-9.999999999999943
 20
-25.24170872301706
 30
0.0
  0
VERTEX
  5
8A
  8
FEATURE1
 10
-9.999999999999972
 20
14.250000000007
 30
0.0
  0
VERTEX
  5
8B
  8
FEATURE1
 10
-4.14564860340397
 20
24.007252327667
 30
0.0
 42
-0.26457540257768
  0
VERTEX
  5
8C
  8
FEATURE1
 10
-3.714792655668617
 20
24.25000000000692
 30
0.0
  0
VERTEX
  5
8D
  8
FEATURE1
 10
3.716907380853087
 20
24.25000000000698
 30
0.0
 42
-0.264241115335328
  0
VERTEX
  5
8E
  8
FEATURE1
 10
4.146415774895132
 20
24.00597370851517
 30
0.0
  0
VERTEX
  5
8F
  8
FEATURE1
 10
9.928759493670924
 20
14.36873417722212
 30
0.0
 42
-0.1377716783753432
  0
VERTEX
  5
90
  8
FEATURE1
 10
10.00000000000003
 20
14.10787650105448
 30
0.0
  0
VERTEX
  5
91
  8
FEATURE1
 10
10.00000000000006
 20
-25.24999999999308
 30
0.0
 42
-0.4142135623731195
  0
VERTEX
  5
92
  8
FEATURE1
 10
9.500000000000057
 20
-25.74999999999305
 30
0.0
  0
VERTEX
  5
93
  8
FEATURE1
 10
-9.500068749999969
 20
-25.74999999999304
 30
0.0
 42
-0.4190790858336565
  0
SEQEND
  5
AD
  8
FEATURE1
  0
POLYLINE
  5
74
  8
FEATURE_2
 66
     1
 10
0.0
 20
0.0
 30
0.0
 70
     1
  0
VERTEX
  5
94
  8
FEATURE_2
 10
-9.999999999999943
 20
-25.24170872301706
 30
0.0
  0
VERTEX
  5
95
  8
FEATURE_2
 10
-9.999999999999972
 20
14.25000000000701
 30
0.0
  0
VERTEX
  5
96
  8
FEATURE_2
 10
-8.551297060988276
 20
16.66450489835984
 30
0.0
 42
-0.2645907118845386
  0
VERTEX
  5
97
  8
FEATURE_2
 10
-7.689527935204325
 20
17.14999999994727
 30
0.0
  0
VERTEX
  5
98
  8
FEATURE_2
 10
7.693820000035885
 20
17.14999999994727
 30
0.0
 42
-0.2623195024631767
  0
VERTEX
  5
99
  8
FEATURE_2
 10
8.549134652101088
 20
16.66810891317185
 30
0.0
  0
VERTEX
  5
9A
  8
FEATURE_2
 10
9.928759493670924
 20
14.36873417722212
 30
0.0
 42
-0.1377716783753432
  0
VERTEX
  5
9B
  8
FEATURE_2
 10
10.00000000000003
 20
14.10787650105448
 30
0.0
  0
VERTEX
  5
9C
  8
FEATURE_2
 10
10.00000000000006
 20
-25.24999999999308
 30
0.0
 42
-0.4142135623731195
  0
VERTEX
  5
9D
  8
FEATURE_2
 10
9.500000000000057
 20
-25.74999999999305
 30
0.0
  0
VERTEX
  5
9E
  8
FEATURE_2
 10
-9.500068749999969
 20
-25.74999999999304
 30
0.0
 42
-0.4190790858336565
  0
SEQEND
  5
AE
  8
FEATURE_2
  0
POLYLINE
  5
76
  8
FUSION360
 66
     1
 10
0.0
 20
0.0
 30
0.0
 70
     1
  0
VERTEX
  5
9F
  8
FUSION360
 10
10.00000000000009
 20
-25.74999999999304
 30
0.0
  0
VERTEX
  5
A0
  8
FUSION360
 10
-9.999999999999945
 20
-25.74999999999304
 30
0.0
  0
VERTEX
  5
A1
  8
FUSION360
 10
-9.999999999999972
 20
14.250000000007
 30
0.0
  0
VERTEX
  5
A2
  8
FUSION360
 10
-4.00000000000002
 20
24.25000000000692
 30
0.0
  0
VERTEX
  5
A3
  8
FUSION360
 10
4.000000000000047
 20
24.25000000000698
 30
0.0
  0
VERTEX
  5
A4
  8
FUSION360
 10
10.00000000000003
 20
14.25000000000696
 30
0.0
  0
SEQEND
  5
AF
  8
FUSION360
  0
POLYLINE
  5
77
  8
FUSION360
 66
     1
 10
0.0
 20
0.0
 30
0.0
 70
     1
  0
VERTEX
  5
A5
  8
FUSION360
 10
-9.999999999999945
 20
-25.74999999999304
 30
0.0
  0
VERTEX
  5
A6
  8
FUSION360
 10
-9.999999999999972
 20
14.25000000000701
 30
0.0
  0
VERTEX
  5
A7
  8
FUSION360
 10
-8.260000000035815
 20
17.14999999994728
 30
0.0
  0
VERTEX
  5
A8
  8
FUSION360
 10
8.260000000035864
 20
17.14999999994725
 30
0.0
  0
VERTEX
  5
A9
  8
FUSION360
 10
10.00000000000003
 20
14.25000000000698
 30
0.0
  0
VERTEX
  5
AA
  8
FUSION360
 10
10.00000000000009
 20
-25.74999999999304
 30
0.0
  0
SEQEND
  5
B0
  8
FUSION360
  0
ENDSEC
  0
EOF
